<?xml version="1.0" encoding="UTF-8"?>
<svg version="1.1" xmlns="http://www.w3.org/2000/svg" width="240" height="261">
<path d="M0 0 C79.2 0 158.4 0 240 0 C240 86.13 240 172.26 240 261 C160.8 261 81.6 261 0 261 C0 174.87 0 88.74 0 0 Z " fill="#FEFEFE" transform="translate(0,0)"/>
<path d="M0 0 C3.20482297 3.20482297 3.7174061 7.38255979 4.875 11.6875 C5.13893555 12.66485107 5.40287109 13.64220215 5.67480469 14.64916992 C8.24586789 24.46759369 10.05961118 34.34433897 11.56542969 44.37548828 C11.9670401 46.80094442 12.47612371 49.16636893 13.0390625 51.55859375 C15.53992507 63.22794551 11.83030757 70.81358904 5.53369141 80.65673828 C5.02757324 81.43001465 4.52145508 82.20329102 4 83 C3.51063965 83.75909668 3.0212793 84.51819336 2.51708984 85.30029297 C-3.82682543 95.01894423 -10.88533444 103.71365604 -19 112 C-19.95504596 113.00462036 -20.90946298 114.00983896 -21.86328125 115.015625 C-28.50874471 121.93359788 -35.63501878 127.9198498 -43.28271484 133.69726562 C-44.91424596 134.93494689 -46.5298827 136.19349856 -48.14453125 137.453125 C-56.48883294 143.96063072 -65.04150856 150.16579038 -73.65087891 156.31689453 C-76.0483493 158.03464145 -78.43655011 159.76475568 -80.82421875 161.49609375 C-82.36166804 162.60199516 -83.89941746 163.70747948 -85.4375 164.8125 C-86.51112793 165.59536377 -86.51112793 165.59536377 -87.60644531 166.39404297 C-88.2712793 166.8685791 -88.93611328 167.34311523 -89.62109375 167.83203125 C-90.2030249 168.25202393 -90.78495605 168.6720166 -91.38452148 169.10473633 C-93 170 -93 170 -96 170 C-90.49606678 164.40500906 -85.00296551 158.90436936 -79.02734375 153.80859375 C-76.58571366 151.63041508 -74.29951968 149.32751992 -72 147 C-69.10408042 144.06881809 -66.19757429 141.23596826 -63.0625 138.5625 C-47.12415231 124.84138213 -34.31084543 108.22222851 -23.625 90.1875 C-23.22031494 89.50671387 -22.81562988 88.82592773 -22.39868164 88.12451172 C-17.35834698 79.44224394 -13.97126338 70.42735329 -10.9375 60.875 C-10.58606934 59.7720459 -10.23463867 58.6690918 -9.87255859 57.53271484 C-7.33234692 49.40427591 -5.38543242 41.40777691 -4 33 C-3.82082031 32.15050781 -3.64164062 31.30101563 -3.45703125 30.42578125 C-1.37037557 20.4317988 -0.83613341 10.15861769 0 0 Z " fill="#BD9D5D" transform="translate(192,8)"/>
<path d="M0 0 C0.66 0 1.32 0 2 0 C1.54757331 5.37451708 0.81483499 10.67185147 0 16 C-0.12987305 16.95245605 -0.25974609 17.90491211 -0.39355469 18.88623047 C-2.90974812 36.04133737 -2.90974812 36.04133737 -7.80029297 40.72363281 C-12.09283821 43.51515363 -16.74400083 45.03024977 -21.65917969 46.36181641 C-23.88131408 46.96764237 -26.02688631 47.67507712 -28.1953125 48.44921875 C-31.77143904 49.72008455 -35.37814405 50.86491115 -39 52 C-40.4041914 52.47364606 -41.80779912 52.94902472 -43.2109375 53.42578125 C-48.61569103 55.23498265 -54.08543367 56.80135218 -59.5625 58.375 C-77.96880304 63.61989133 -77.96880304 63.61989133 -96 70 C-97.299375 70.48339844 -97.299375 70.48339844 -98.625 70.9765625 C-119.25234067 78.49339911 -119.25234067 78.49339911 -138.35546875 89.1015625 C-138.89816406 89.39804688 -139.44085938 89.69453125 -140 90 C-140.66 89.67 -141.32 89.34 -142 89 C-122.08004757 73.13968345 -100.73906634 60.88313989 -77.70605469 50.078125 C-57.60399162 40.64769872 -37.87170346 30.24971119 -20 17 C-19.13890625 16.36835938 -18.2778125 15.73671875 -17.390625 15.0859375 C-11.2837765 10.47421398 -5.41272629 5.41272629 0 0 Z " fill="#C4A762" transform="translate(204,130)"/>
<path d="M0 0 C0.62328018 15.72051122 -2.0419057 30.85798808 -6 46 C-6.27070312 47.07636719 -6.54140625 48.15273437 -6.8203125 49.26171875 C-8.15600815 54.41469198 -9.82537952 59.12885012 -12 64 C-12.59073984 65.66405589 -13.17323066 67.33105042 -13.75 69 C-17.91950604 80.50474815 -23.64369035 91.38650123 -29.07867432 102.33157349 C-29.97477428 104.1366851 -30.86804377 105.94320096 -31.76123047 107.74975586 C-35.11727174 114.46796428 -38.66066752 121.00578476 -42.52563477 127.44555664 C-44.31803397 130.55101664 -45.70929133 133.65934228 -47 137 C-48.41837883 132.47789673 -47.13489481 128.86386796 -45.875 124.4375 C-45.40477143 122.7201004 -44.93472441 121.00265107 -44.46484375 119.28515625 C-44.2210498 118.40746582 -43.97725586 117.52977539 -43.72607422 116.62548828 C-41.94489349 110.18472918 -40.25573766 103.7189269 -38.58203125 97.24951172 C-38.20966742 95.81035051 -37.8348974 94.37180836 -37.45703125 92.93408203 C-33.25794523 76.82837711 -29.68938033 60.10566567 -30.0546875 43.4140625 C-30.49995207 19.87310397 -30.49995207 19.87310397 -26.03125 14.484375 C-23.00129388 11.72369505 -19.69973039 9.7486104 -16.015625 7.97753906 C-14.04727845 7.02292913 -12.24698092 5.95278472 -10.40625 4.7734375 C-2.81298263 0 -2.81298263 0 0 0 Z " fill="#ECDF83" transform="translate(97,83)"/>
<path d="M0 0 C1.7169257 29.31336556 -15.65688024 60.81674273 -32 84 C-32.62519531 84.89460938 -33.25039062 85.78921875 -33.89453125 86.7109375 C-35.19984702 88.52122945 -36.58865153 90.27109812 -38 92 C-38.66 92 -39.32 92 -40 92 C-40.66 93.65 -41.32 95.3 -42 97 C-42.66 97 -43.32 97 -44 97 C-44.27529541 97.59296875 -44.55059082 98.1859375 -44.83422852 98.796875 C-45.94519071 100.89641905 -47.09513767 102.4681735 -48.65234375 104.25 C-49.17602539 104.85231445 -49.69970703 105.45462891 -50.23925781 106.07519531 C-50.79967773 106.71038086 -51.36009766 107.34556641 -51.9375 108 C-52.51725586 108.66354492 -53.09701172 109.32708984 -53.69433594 110.01074219 C-57.3213548 114.14542471 -61.01156339 118.2161063 -64.75 122.25 C-68.9751611 126.81857042 -72.94961499 131.52926013 -76.8515625 136.375 C-80.11241482 140.35916865 -83.54343471 144.18553422 -87 148 C-87 144.50575904 -86.40649017 143.83576339 -84.359375 141.11328125 C-83.78944824 140.34814209 -83.21952148 139.58300293 -82.63232422 138.79467773 C-81.70057373 137.56599976 -81.70057373 137.56599976 -80.75 136.3125 C-79.79697998 135.03644897 -79.79697998 135.03644897 -78.82470703 133.73461914 C-75.84318886 129.74798204 -72.83575378 125.78132236 -69.8203125 121.8203125 C-52.71363955 99.30990711 -38.02324357 76.32631527 -29.875 49.0625 C-29.48139282 47.75007324 -29.48139282 47.75007324 -29.07983398 46.41113281 C-27.70053515 41.50441063 -26.80922409 36.8270158 -26.40234375 31.7421875 C-25.04765837 16.26535466 -25.04765837 16.26535466 -21.02050781 11.81005859 C-16.42274226 8.10645971 -11.39377637 5.36421962 -6.02124023 2.94775391 C-4.0276666 2.01297279 -2.17338471 0 0 0 Z " fill="#C3A663" transform="translate(159,46)"/>
<path d="M0 0 C-6.8483952 7.16610426 -13.52763443 13.72863217 -22 19 C-22.68320313 19.57105469 -23.36640625 20.14210937 -24.0703125 20.73046875 C-28.81535296 22.78665295 -33.39090518 21.81952167 -38.4375 21.25 C-39.46166016 21.14945313 -40.48582031 21.04890625 -41.54101562 20.9453125 C-45.31804341 20.5639427 -49.05925411 20.17320188 -52.79423523 19.48554993 C-55.92497997 19.01136265 -58.84187762 18.87956742 -62.00537109 18.88647461 C-63.74649673 18.88658791 -63.74649673 18.88658791 -65.52279663 18.88670349 C-66.76050812 18.89186478 -67.9982196 18.89702606 -69.2734375 18.90234375 C-70.55231842 18.9037587 -71.83119934 18.90517365 -73.14883423 18.90663147 C-76.53211336 18.91126978 -79.91532386 18.92023919 -83.29858398 18.93133545 C-86.75764374 18.94160485 -90.21671061 18.94614089 -93.67578125 18.95117188 C-100.45053966 18.96218391 -107.22526587 18.97890936 -114 19 C-102.85816529 7.85816529 -75.07923578 7.76816925 -59.83067322 5.77763367 C-55.56148833 5.2195329 -51.30756542 4.59642619 -47.0546875 3.92578125 C-41.98284336 3.13197166 -36.92116081 2.49687208 -31.8125 2 C-30.19263243 1.83799673 -28.57284258 1.67521476 -26.953125 1.51171875 C-26.14037109 1.42970215 -25.32761719 1.34768555 -24.49023438 1.26318359 C-21.9643065 0.99622769 -19.44338877 0.70024292 -16.921875 0.39453125 C-16.10614014 0.29720703 -15.29040527 0.19988281 -14.44995117 0.09960938 C-12.89473268 -0.08741762 -11.34015241 -0.27985636 -9.78637695 -0.47851562 C-6.30503149 -0.89104847 -3.33628757 -1.22824164 0 0 Z " fill="#CDB46B" transform="translate(177,209)"/>
<path d="M0 0 C0.62328018 15.72051122 -2.0419057 30.85798808 -6 46 C-6.27070312 47.07636719 -6.54140625 48.15273437 -6.8203125 49.26171875 C-8.15600815 54.41469198 -9.82537952 59.12885012 -12 64 C-13.00192326 66.77641385 -13.97775289 69.56029799 -14.9375 72.3515625 C-16.04629508 75.11539729 -17.35330518 77.52100834 -19 80 C-19.33 80 -19.66 80 -20 80 C-20.02314782 72.73305527 -20.04092756 65.46611846 -20.05181217 58.19914436 C-20.05703565 54.82496974 -20.06412361 51.45082029 -20.07543945 48.07666016 C-20.08752436 44.19953741 -20.09323263 40.3224506 -20.09765625 36.4453125 C-20.10281754 35.23070343 -20.10797882 34.01609436 -20.11329651 32.76467896 C-20.11340981 31.08316238 -20.11340981 31.08316238 -20.11352539 29.36767578 C-20.115746 28.37728302 -20.11796661 27.38689026 -20.12025452 26.3664856 C-20 24 -20 24 -19 22 C-19.061875 20.7625 -19.12375 19.525 -19.1875 18.25 C-19.1875 13.6611724 -18.17413668 11.4694052 -15 8 C-3.80991736 0 -3.80991736 0 0 0 Z " fill="#D7C272" transform="translate(97,83)"/>
<path d="M0 0 C2.37735702 3.56603552 2.28933079 6.08394722 2.265625 10.19921875 C2.26826355 10.93077682 2.2709021 11.6623349 2.27362061 12.4160614 C2.27748819 14.84003994 2.26467293 17.26356723 2.25 19.6875 C2.24822754 20.5152594 2.24645508 21.3430188 2.24462891 22.19586182 C2.19569908 41.8275445 1.17209102 61.40799985 0 81 C-0.99 81.495 -0.99 81.495 -2 82 C-7.7490359 58.9268604 -12.3157577 21.80221971 0 0 Z " fill="#E8DA87" transform="translate(43,141)"/>
<path d="M0 0 C0.66228985 16.70442165 -1.30248977 35.54190718 -8 51 C-8.99 51 -9.98 51 -11 51 C-11.12372902 44.82535087 -11.21440144 38.65142544 -11.2746582 32.47583008 C-11.29978051 30.3757673 -11.33388458 28.27579177 -11.37719727 26.17602539 C-11.43794871 23.1548916 -11.46623263 20.13491504 -11.48828125 17.11328125 C-11.51408768 16.17664139 -11.5398941 15.24000153 -11.56648254 14.27497864 C-11.56845883 9.6670976 -11.53281983 7.67889018 -8.60620117 3.94995117 C-3.32690622 0 -3.32690622 0 0 0 Z " fill="#B49156" transform="translate(97,83)"/>
<path d="M0 0 C1.36608398 -0.00338379 1.36608398 -0.00338379 2.75976562 -0.00683594 C3.72978516 -0.00200195 4.69980469 0.00283203 5.69921875 0.0078125 C6.69888672 0.01264648 7.69855469 0.01748047 8.72851562 0.02246094 C43.90804989 0.30671703 43.90804989 0.30671703 58.38671875 7.1328125 C58.38671875 7.4628125 58.38671875 7.7928125 58.38671875 8.1328125 C54.56511691 9.02466721 51.01816964 9.26155265 47.09765625 9.265625 C45.90914062 9.26691406 44.720625 9.26820313 43.49609375 9.26953125 C42.26375 9.26566406 41.03140625 9.26179687 39.76171875 9.2578125 C38.52164063 9.26167969 37.2815625 9.26554688 36.00390625 9.26953125 C34.225 9.26759766 34.225 9.26759766 32.41015625 9.265625 C31.32653809 9.26449707 30.24291992 9.26336914 29.12646484 9.26220703 C26.38671875 9.1328125 26.38671875 9.1328125 23.38671875 8.1328125 C20.59542918 7.81496379 17.80763786 7.52697231 15.01171875 7.2578125 C7.27465015 6.46614877 -0.08526917 5.12786871 -7.61328125 3.1328125 C-7.61328125 2.4728125 -7.61328125 1.8128125 -7.61328125 1.1328125 C-4.75616521 0.18044049 -2.96433864 0.00409318 0 0 Z " fill="#DAC677" transform="translate(56.61328125,233.8671875)"/>
<path d="M0 0 C0.33 0 0.66 0 1 0 C2.59041096 33.81764223 2.59041096 33.81764223 -5.8359375 45.28564453 C-8.10318141 48.62469377 -9.74957085 52.30956881 -11.5 55.9375 C-12.17574916 57.30144306 -12.85270372 58.66479006 -13.53125 60.02734375 C-14.0159375 61.00832031 -14.500625 61.98929688 -15 63 C-16.4183714 58.4779204 -15.13494758 54.86382434 -13.875 50.4375 C-13.4034388 48.71620254 -12.93209044 46.99484676 -12.4609375 45.2734375 C-12.21698242 44.39526367 -11.97302734 43.51708984 -11.72167969 42.61230469 C-10.61445657 38.6044267 -9.55615574 34.58408101 -8.5 30.5625 C-8.29713379 29.79558838 -8.09426758 29.02867676 -7.88525391 28.23852539 C-6.7593675 23.9652142 -5.66782097 19.68507023 -4.609375 15.39453125 C-4.38185547 14.472771 -4.15433594 13.55101074 -3.91992188 12.60131836 C-3.48038696 10.81258426 -3.04407821 9.02305368 -2.61132812 7.23266602 C-1.10885451 1.10885451 -1.10885451 1.10885451 0 0 Z " fill="#C9AF63" transform="translate(65,157)"/>
<path d="M0 0 C0.66 0.33 1.32 0.66 2 1 C1.67 1.33 1.34 1.66 1 2 C0.90731001 3.35094982 0.88252674 4.70667091 0.88647461 6.06079102 C0.88655014 6.92160782 0.88662567 7.78242462 0.88670349 8.66932678 C0.89186478 9.60473801 0.89702606 10.54014923 0.90234375 11.50390625 C0.9037587 12.45692123 0.90517365 13.40993622 0.90663147 14.39183044 C0.91224848 17.44875165 0.92480384 20.50560077 0.9375 23.5625 C0.94251281 25.62955624 0.94707609 27.69661362 0.95117188 29.76367188 C0.96222344 34.84247588 0.97949945 39.9212257 1 45 C1.66 45.33 2.32 45.66 3 46 C2.41691807 50.78127179 0.94986394 54.61280615 -1 59 C-1.37308631 60.32276056 -1.73046415 61.65232077 -2 63 C-2.66 63 -3.32 63 -4 63 C-4.24666994 55.37714711 -4.46590058 47.75392302 -4.65021229 40.12931442 C-4.73665994 36.58874861 -4.83250976 33.04896141 -4.94995117 29.50927734 C-5.08458618 25.43889286 -5.17813015 21.36846138 -5.26953125 17.296875 C-5.31721146 16.02696716 -5.36489166 14.75705933 -5.41401672 13.44866943 C-5.43441513 12.26774719 -5.45481354 11.08682495 -5.47583008 9.87011719 C-5.50469803 8.83087097 -5.53356598 7.79162476 -5.56330872 6.72088623 C-4.80092313 3.03842154 -3.05932306 2.02255362 0 0 Z " fill="#C8AE67" transform="translate(86,88)"/>
<path d="M0 0 C0.27010911 6.81275203 -0.14341213 13.48246513 -0.875 20.25 C-0.95347168 21.00587402 -1.03194336 21.76174805 -1.11279297 22.54052734 C-1.64628458 27.20678703 -2.36403705 31.58404406 -4 36 C-5.485 36.495 -5.485 36.495 -7 37 C-7.12397147 32.53435699 -7.21450992 28.06963561 -7.2746582 23.6027832 C-7.29974109 22.08470199 -7.3338166 20.56674082 -7.37719727 19.04907227 C-7.43813293 16.86184035 -7.46626895 14.67620961 -7.48828125 12.48828125 C-7.51446533 11.17384033 -7.54064941 9.85939941 -7.56762695 8.50512695 C-6.89378692 4.34412854 -4.77838807 0 0 0 Z " fill="#A27849" transform="translate(97,83)"/>
<path d="M0 0 C2.4790913 3.71863694 2.27145589 6.56677463 2.23046875 10.8671875 C2.2304184 11.65042389 2.23036804 12.43366028 2.23031616 13.2406311 C2.22670345 15.7855817 2.2078086 18.330132 2.1875 20.875 C2.17998917 22.61393115 2.17274658 24.35286349 2.16577148 26.09179688 C1.99426467 57.40861119 1.99426467 57.40861119 0 68 C-0.33 68 -0.66 68 -1 68 C-1.02314216 59.42921353 -1.04092467 50.85844005 -1.05181217 42.28763008 C-1.05703689 38.30811588 -1.0641271 34.32862301 -1.07543945 30.34912109 C-1.08628291 26.51066757 -1.09227994 22.6722346 -1.09487724 18.83376694 C-1.09672885 17.36730501 -1.10034444 15.90084423 -1.10573006 14.43439102 C-1.11295983 12.38478388 -1.11399012 10.33526232 -1.11352539 8.28564453 C-1.115746 7.11760284 -1.11796661 5.94956116 -1.12025452 4.74612427 C-1 2 -1 2 0 0 Z " fill="#BFA16A" transform="translate(43,141)"/>
<path d="M0 0 C0.33 0 0.66 0 1 0 C1 18.15 1 36.3 1 55 C-1.91680468 49.16639064 -2.15847186 44.18005336 -2.16796875 37.734375 C-2.17129715 36.94154114 -2.17462555 36.14870728 -2.17805481 35.33184814 C-2.18310417 33.65759864 -2.18546375 31.98333914 -2.18530273 30.30908203 C-2.18748086 27.77228811 -2.20563452 25.23593538 -2.22460938 22.69921875 C-2.22754554 21.06510564 -2.22952884 19.43099048 -2.23046875 17.796875 C-2.23765427 17.04968201 -2.24483978 16.30248901 -2.25224304 15.53265381 C-2.22932558 10.14003605 -1.34946412 5.21524893 0 0 Z " fill="#C6AB61" transform="translate(39,155)"/>
<path d="M0 0 C1 2 1 2 0.56201172 4.53662109 C-0.14186161 8.87421753 -0.06704506 13.03067878 0.0078125 17.4140625 C0.02531804 19.24478623 0.04222734 21.07551574 0.05859375 22.90625 C0.08962133 25.77457782 0.12528315 28.6426148 0.17138672 31.51074219 C0.21368546 34.2910529 0.23714457 37.0710183 0.2578125 39.8515625 C0.27643341 40.70891998 0.29505432 41.56627747 0.3142395 42.44961548 C0.3399948 48.42326808 0.3399948 48.42326808 -1.51611328 51.57177734 C-2.0057959 52.04309082 -2.49547852 52.5144043 -3 53 C-3.02505615 52.14245117 -3.0501123 51.28490234 -3.07592773 50.40136719 C-3.17123412 47.2106563 -3.27045751 44.02009781 -3.37231445 40.82958984 C-3.4155455 39.45040622 -3.45722866 38.07117315 -3.49731445 36.69189453 C-3.55530403 34.70593062 -3.61937723 32.72014731 -3.68359375 30.734375 C-3.73858032 28.94338379 -3.73858032 28.94338379 -3.79467773 27.11621094 C-3.89451299 24.13678042 -3.89451299 24.13678042 -4.55029297 21.86108398 C-5.46585273 18.07209805 -4.30945618 14.10333699 -3.6875 10.3125 C-3.55666016 9.43271484 -3.42582031 8.55292969 -3.29101562 7.64648438 C-3.15759766 6.81052734 -3.02417969 5.97457031 -2.88671875 5.11328125 C-2.76514404 4.34798096 -2.64356934 3.58268066 -2.51831055 2.79418945 C-2.34726807 2.20210693 -2.17622559 1.61002441 -2 1 C-1.34 0.67 -0.68 0.34 0 0 Z " fill="#DECC75" transform="translate(69,134)"/>
<path d="M0 0 C0.33 0 0.66 0 1 0 C1.44428876 9.25601576 1.31854153 16.63773321 -3 25 C-3.52851562 26.08152344 -4.05703125 27.16304687 -4.6015625 28.27734375 C-6.0406008 31.19975092 -7.50753148 34.10461107 -9 37 C-9.97358523 33.93151016 -9.99037805 32.00439275 -9.14453125 28.91015625 C-8.93602539 28.13140137 -8.72751953 27.35264648 -8.51269531 26.55029297 C-8.28163086 25.72932129 -8.05056641 24.90834961 -7.8125 24.0625 C-7.58272461 23.22090332 -7.35294922 22.37930664 -7.11621094 21.51220703 C-1.64247695 1.64247695 -1.64247695 1.64247695 0 0 Z " fill="#BA9954" transform="translate(59,183)"/>
<path d="M0 0 C0.33 0 0.66 0 1 0 C1.33 13.86 1.66 27.72 2 42 C2.66 42.33 3.32 42.66 4 43 C3.38461538 48.53846154 3.38461538 48.53846154 1.4375 50.875 C0.963125 51.24625 0.48875 51.6175 0 52 C-0.73006433 48.72254606 -1.12598173 45.68896475 -1.12939453 42.33325195 C-1.13254669 41.43915115 -1.13569885 40.54505035 -1.13894653 39.62385559 C-1.1369223 38.67161606 -1.13489807 37.71937653 -1.1328125 36.73828125 C-1.13376923 35.75127731 -1.13472595 34.76427338 -1.13571167 33.74736023 C-1.1363907 31.66710343 -1.13455574 29.58684449 -1.13037109 27.5065918 C-1.12500184 24.31359138 -1.13033423 21.12073053 -1.13671875 17.92773438 C-1.13605826 15.90624969 -1.13477769 13.88476509 -1.1328125 11.86328125 C-1.13483673 10.90496902 -1.13686096 9.9466568 -1.13894653 8.95930481 C-1.13579437 8.07466049 -1.13264221 7.19001617 -1.12939453 6.27856445 C-1.12859894 5.49866653 -1.12780334 4.71876862 -1.12698364 3.91523743 C-1 2 -1 2 0 0 Z " fill="#C0A260" transform="translate(85,91)"/>
<path d="M0 0 C7.71411784 -0.43664818 15.47004862 0.64669908 22 5 C14.08 5 6.16 5 -2 5 C-1.34 3.35 -0.68 1.7 0 0 Z " fill="#BD9D60" transform="translate(93,237)"/>
<path d="M0 0 C0.33 0 0.66 0 1 0 C1.049377 4.52065428 1.08570823 9.04115217 1.10986328 13.56201172 C1.11993118 15.10045098 1.13358646 16.63887107 1.15087891 18.17724609 C1.17509317 20.38644133 1.18647491 22.59538395 1.1953125 24.8046875 C1.20563507 25.49432587 1.21595764 26.18396423 1.22659302 26.89450073 C1.22699478 28.59800906 1.12191026 30.30085943 1 32 C0.34 32.66 -0.32 33.32 -1 34 C-1.19279158 29.80125838 -1.3714261 25.60222204 -1.53710938 21.40234375 C-1.59541735 19.97444624 -1.65755423 18.54669964 -1.72363281 17.11914062 C-1.81808538 15.06408166 -1.89863877 13.00886899 -1.9765625 10.953125 C-2.02893066 9.71723633 -2.08129883 8.48134766 -2.13525391 7.20800781 C-2.00570235 4.13525065 -1.63395097 2.554094 0 0 Z " fill="#D5BF6B" transform="translate(65,157)"/>
<path d="M0 0 C0.33 0 0.66 0 1 0 C2.04055665 8.70984454 -0.68909431 14.5328955 -5 22 C-5.99439537 18.90107564 -5.98269243 17.02779131 -5.0390625 13.92578125 C-4.81476562 13.17619141 -4.59046875 12.42660156 -4.359375 11.65429688 C-4.11703125 10.88150391 -3.8746875 10.10871094 -3.625 9.3125 C-3.39039063 8.52810547 -3.15578125 7.74371094 -2.9140625 6.93554688 C-1.15559977 1.15559977 -1.15559977 1.15559977 0 0 Z " fill="#AC8546" transform="translate(55,198)"/>
<path d="M0 0 C1.43519267 2.87038534 0.52564261 4.84614432 0 8 C-0.08656179 10.67379757 -0.0461436 13.3236713 0 16 C-0.66 16 -1.32 16 -2 16 C-2.33 16.66 -2.66 17.32 -3 18 C-4.24995895 14.25012314 -3.74437982 11.7771651 -3.1875 7.875 C-3.01605469 6.61429688 -2.84460938 5.35359375 -2.66796875 4.0546875 C-2.44753906 3.04664063 -2.22710937 2.03859375 -2 1 C-1.34 0.67 -0.68 0.34 0 0 Z " fill="#E0CF7A" transform="translate(69,134)"/>
<path d="M0 0 C1.32 0.66 2.64 1.32 4 2 C3.34 5.3 2.68 8.6 2 12 C1.01 12.33 0.02 12.66 -1 13 C-1.02686553 11.02090602 -1.04633375 9.04171029 -1.0625 7.0625 C-1.07410156 5.96035156 -1.08570312 4.85820313 -1.09765625 3.72265625 C-1 1 -1 1 0 0 Z " fill="#A8804E" transform="translate(91,107)"/>
<path d="M0 0 C0.66 0.66 1.32 1.32 2 2 C2.66 1.34 3.32 0.68 4 0 C3.27275406 5.52706913 1.66554027 10.69960141 0 16 C-0.33 16 -0.66 16 -1 16 C-1.02692484 13.70839681 -1.04636124 11.41670454 -1.0625 9.125 C-1.07410156 7.84882812 -1.08570312 6.57265625 -1.09765625 5.2578125 C-1 2 -1 2 0 0 Z " fill="#DBC875" transform="translate(78,107)"/>
<path d="M0 0 C0.66 0.33 1.32 0.66 2 1 C1.2884375 1.6496875 1.2884375 1.6496875 0.5625 2.3125 C-1.23686957 4.02309613 -1.23686957 4.02309613 -2 7 C-3.62890625 8.38671875 -3.62890625 8.38671875 -5.5625 9.6875 C-6.52349609 10.34298828 -6.52349609 10.34298828 -7.50390625 11.01171875 C-7.99761719 11.33785156 -8.49132812 11.66398438 -9 12 C-9.66 11.67 -10.32 11.34 -11 11 C-7.37 7.37 -3.74 3.74 0 0 Z " fill="#B49256" transform="translate(107,167)"/>
<path d="M0 0 C0.66 0 1.32 0 2 0 C0.58319756 4.32046898 -1.53763785 7.00461199 -4.625 10.3125 C-5.44226563 11.19550781 -6.25953125 12.07851562 -7.1015625 12.98828125 C-8.04128906 13.98408203 -8.04128906 13.98408203 -9 15 C-9 10.95384619 -6.98772118 8.88911087 -4.625 5.8125 C-4.2125 5.25369141 -3.8 4.69488281 -3.375 4.11914062 C-2.30360789 2.70386621 -1.15657675 1.34655596 0 0 Z " fill="#BB9C63" transform="translate(81,179)"/>
<path d="M0 0 C1.28270075 2.56540151 0.68405835 3.26376662 0 6 C0.020625 7.03125 0.04125 8.0625 0.0625 9.125 C0 12 0 12 -2 14 C-4 11 -4 11 -3.8125 7.5625 C-3.03703201 4.16237111 -2.32086189 2.52267597 0 0 Z M-2 6 C-1 8 -1 8 -1 8 Z " fill="#E1D07B" transform="translate(79,93)"/>
<path d="M0 0 C-0.66 1.32 -1.32 2.64 -2 4 C-4.31 3.67 -6.62 3.34 -9 3 C-9 2.34 -9 1.68 -9 1 C-5.8035914 -0.06546953 -3.34252724 -0.07427838 0 0 Z " fill="#B39059" transform="translate(58,234)"/>
<path d="M0 0 C0.66 0.33 1.32 0.66 2 1 C2 1.66 2 2.32 2 3 C-0.1171875 4.54296875 -0.1171875 4.54296875 -2.875 6.1875 C-3.77992187 6.73792969 -4.68484375 7.28835937 -5.6171875 7.85546875 C-6.40351562 8.23316406 -7.18984375 8.61085937 -8 9 C-8.66 8.67 -9.32 8.34 -10 8 C-6.7 5.36 -3.4 2.72 0 0 Z " fill="#AF8A57" transform="translate(72,211)"/>
<path d="M0 0 C0.66 0.33 1.32 0.66 2 1 C0.68 3.64 -0.64 6.28 -2 9 C-2.33 9 -2.66 9 -3 9 C-3.36923077 3.46153846 -3.36923077 3.46153846 -1.5 1.125 C-1.005 0.75375 -0.51 0.3825 0 0 Z " fill="#DCC97A" transform="translate(80,154)"/>
<path d="M0 0 C1.25460729 2.50921458 0.86211613 3.38830225 0.1875 6.0625 C0.01605469 6.77535156 -0.15539062 7.48820313 -0.33203125 8.22265625 C-1 10 -1 10 -3 11 C-2.8864371 9.35333797 -2.75882619 7.70763918 -2.625 6.0625 C-2.55539063 5.14597656 -2.48578125 4.22945312 -2.4140625 3.28515625 C-2.27742188 2.53105469 -2.14078125 1.77695313 -2 1 C-1.34 0.67 -0.68 0.34 0 0 Z " fill="#E4D483" transform="translate(69,134)"/>
<path d="M0 0 C0.66 0 1.32 0 2 0 C1.01 2.97 0.02 5.94 -1 9 C-2.07349791 4.70600835 -1.79682816 3.80504787 0 0 Z " fill="#B18E60" transform="translate(51,211)"/>
</svg>
